<svg width="396" height="423" viewBox="0 0 396 423" fill="none" xmlns="http://www.w3.org/2000/svg">
<g filter="url(#filter0_f_1_57)">
<rect x="78" y="182" width="240" height="35" rx="17.5" fill="#00BCFF"/>
</g>
<g filter="url(#filter1_b_1_57)">
<g filter="url(#filter2_i_1_57)">
<path d="M317.747 95.0084C318.549 90.4546 318.967 85.7701 318.967 80.9888C318.967 36.2599 282.369 0 237.223 0C203.661 0 174.823 20.0397 162.234 48.7008C152.035 39.9768 138.801 34.7095 124.339 34.7095C92.0918 34.7095 65.9504 60.8972 65.9504 93.2014C65.9504 95.0003 66.0315 96.7801 66.1902 98.5376C50.6799 106.065 40 121.858 40 140.124C40 165.683 60.9131 186.403 86.7108 186.403H307.289C333.087 186.403 354 165.683 354 140.124C354 118.126 338.51 99.7132 317.747 95.0084Z" fill="url(#paint0_linear_1_57)"/>
</g>
</g>
<g style="mix-blend-mode:color-dodge" filter="url(#filter3_d_1_57)">
<path fill-rule="evenodd" clip-rule="evenodd" d="M124.5 217C121.318 217 118.738 219.58 118.738 222.762V233.751L110.375 225.787C108.125 223.644 104.476 223.644 102.226 225.787C99.9758 227.93 99.9758 231.405 102.226 233.548L110.589 241.512H98.4878C95.457 241.512 93 243.969 93 247C93 250.031 95.457 252.488 98.4878 252.488H110.589L102.226 260.452C99.9759 262.595 99.9759 266.07 102.226 268.213C104.476 270.356 108.125 270.356 110.375 268.213L118.738 260.249V271.238C118.738 274.42 121.318 277 124.5 277C127.682 277 130.262 274.42 130.262 271.238V260.249L138.625 268.213C140.875 270.356 144.524 270.356 146.774 268.213C149.024 266.07 149.024 262.595 146.774 260.452L138.411 252.488H150.512C153.543 252.488 156 250.031 156 247C156 243.969 153.543 241.512 150.512 241.512H138.411L146.774 233.548C149.024 231.405 149.024 227.93 146.774 225.787C144.524 223.644 140.875 223.644 138.625 225.787L130.262 233.751V222.762C130.262 219.58 127.682 217 124.5 217Z" fill="#E2E2E2"/>
</g>
<g style="mix-blend-mode:color-dodge" filter="url(#filter4_d_1_57)">
<path fill-rule="evenodd" clip-rule="evenodd" d="M267.5 213C264.318 213 261.738 215.58 261.738 218.762V229.751L253.375 221.787C251.125 219.644 247.476 219.644 245.226 221.787C242.976 223.93 242.976 227.405 245.226 229.548L253.589 237.512H241.488C238.457 237.512 236 239.969 236 243C236 246.031 238.457 248.488 241.488 248.488H253.589L245.226 256.452C242.976 258.595 242.976 262.07 245.226 264.213C247.476 266.356 251.125 266.356 253.375 264.213L261.738 256.249V267.238C261.738 270.42 264.318 273 267.5 273C270.682 273 273.262 270.42 273.262 267.238V256.249L281.625 264.213C283.875 266.356 287.524 266.356 289.774 264.213C292.024 262.07 292.024 258.595 289.774 256.452L281.411 248.488H293.512C296.543 248.488 299 246.031 299 243C299 239.969 296.543 237.512 293.512 237.512H281.411L289.774 229.548C292.024 227.405 292.024 223.93 289.774 221.787C287.524 219.644 283.875 219.644 281.625 221.787L273.262 229.751V218.762C273.262 215.58 270.682 213 267.5 213Z" fill="#E2E2E2"/>
</g>
<g style="mix-blend-mode:color-dodge" filter="url(#filter5_d_1_57)">
<path fill-rule="evenodd" clip-rule="evenodd" d="M187.5 273C184.318 273 181.738 275.58 181.738 278.762V289.751L173.375 281.787C171.125 279.644 167.476 279.644 165.226 281.787C162.976 283.93 162.976 287.405 165.226 289.548L173.589 297.512H161.488C158.457 297.512 156 299.969 156 303C156 306.031 158.457 308.488 161.488 308.488H173.589L165.226 316.452C162.976 318.595 162.976 322.07 165.226 324.213C167.476 326.356 171.125 326.356 173.375 324.213L181.738 316.249V327.238C181.738 330.42 184.318 333 187.5 333C190.682 333 193.262 330.42 193.262 327.238V316.249L201.625 324.213C203.875 326.356 207.524 326.356 209.774 324.213C212.024 322.07 212.024 318.595 209.774 316.452L201.411 308.488H213.512C216.543 308.488 219 306.031 219 303C219 299.969 216.543 297.512 213.512 297.512H201.411L209.774 289.548C212.024 287.405 212.024 283.93 209.774 281.787C207.524 279.644 203.875 279.644 201.625 281.787L193.262 289.751V278.762C193.262 275.58 190.682 273 187.5 273Z" fill="#E2E2E2"/>
</g>
<defs>
<filter id="filter0_f_1_57" x="0" y="104" width="396" height="191" filterUnits="userSpaceOnUse" color-interpolation-filters="sRGB">
<feFlood flood-opacity="0" result="BackgroundImageFix"/>
<feBlend mode="normal" in="SourceGraphic" in2="BackgroundImageFix" result="shape"/>
<feGaussianBlur stdDeviation="39" result="effect1_foregroundBlur_1_57"/>
</filter>
<filter id="filter1_b_1_57" x="13" y="-27" width="368" height="240.403" filterUnits="userSpaceOnUse" color-interpolation-filters="sRGB">
<feFlood flood-opacity="0" result="BackgroundImageFix"/>
<feGaussianBlur in="BackgroundImageFix" stdDeviation="13.5"/>
<feComposite in2="SourceAlpha" operator="in" result="effect1_backgroundBlur_1_57"/>
<feBlend mode="normal" in="SourceGraphic" in2="effect1_backgroundBlur_1_57" result="shape"/>
</filter>
<filter id="filter2_i_1_57" x="40" y="0" width="314" height="196.403" filterUnits="userSpaceOnUse" color-interpolation-filters="sRGB">
<feFlood flood-opacity="0" result="BackgroundImageFix"/>
<feBlend mode="normal" in="SourceGraphic" in2="BackgroundImageFix" result="shape"/>
<feColorMatrix in="SourceAlpha" type="matrix" values="0 0 0 0 0 0 0 0 0 0 0 0 0 0 0 0 0 0 127 0" result="hardAlpha"/>
<feOffset dy="11"/>
<feGaussianBlur stdDeviation="5"/>
<feComposite in2="hardAlpha" operator="arithmetic" k2="-1" k3="1"/>
<feColorMatrix type="matrix" values="0 0 0 0 1 0 0 0 0 1 0 0 0 0 1 0 0 0 1 0"/>
<feBlend mode="normal" in2="shape" result="effect1_innerShadow_1_57"/>
</filter>
<filter id="filter3_d_1_57" x="41" y="217" width="153" height="150" filterUnits="userSpaceOnUse" color-interpolation-filters="sRGB">
<feFlood flood-opacity="0" result="BackgroundImageFix"/>
<feColorMatrix in="SourceAlpha" type="matrix" values="0 0 0 0 0 0 0 0 0 0 0 0 0 0 0 0 0 0 127 0" result="hardAlpha"/>
<feOffset dx="-7" dy="45"/>
<feGaussianBlur stdDeviation="22.5"/>
<feComposite in2="hardAlpha" operator="out"/>
<feColorMatrix type="matrix" values="0 0 0 0 1 0 0 0 0 1 0 0 0 0 1 0 0 0 0.25 0"/>
<feBlend mode="overlay" in2="BackgroundImageFix" result="effect1_dropShadow_1_57"/>
<feBlend mode="normal" in="SourceGraphic" in2="effect1_dropShadow_1_57" result="shape"/>
</filter>
<filter id="filter4_d_1_57" x="184" y="213" width="153" height="150" filterUnits="userSpaceOnUse" color-interpolation-filters="sRGB">
<feFlood flood-opacity="0" result="BackgroundImageFix"/>
<feColorMatrix in="SourceAlpha" type="matrix" values="0 0 0 0 0 0 0 0 0 0 0 0 0 0 0 0 0 0 127 0" result="hardAlpha"/>
<feOffset dx="-7" dy="45"/>
<feGaussianBlur stdDeviation="22.5"/>
<feComposite in2="hardAlpha" operator="out"/>
<feColorMatrix type="matrix" values="0 0 0 0 1 0 0 0 0 1 0 0 0 0 1 0 0 0 0.25 0"/>
<feBlend mode="overlay" in2="BackgroundImageFix" result="effect1_dropShadow_1_57"/>
<feBlend mode="normal" in="SourceGraphic" in2="effect1_dropShadow_1_57" result="shape"/>
</filter>
<filter id="filter5_d_1_57" x="104" y="273" width="153" height="150" filterUnits="userSpaceOnUse" color-interpolation-filters="sRGB">
<feFlood flood-opacity="0" result="BackgroundImageFix"/>
<feColorMatrix in="SourceAlpha" type="matrix" values="0 0 0 0 0 0 0 0 0 0 0 0 0 0 0 0 0 0 127 0" result="hardAlpha"/>
<feOffset dx="-7" dy="45"/>
<feGaussianBlur stdDeviation="22.5"/>
<feComposite in2="hardAlpha" operator="out"/>
<feColorMatrix type="matrix" values="0 0 0 0 1 0 0 0 0 1 0 0 0 0 1 0 0 0 0.25 0"/>
<feBlend mode="overlay" in2="BackgroundImageFix" result="effect1_dropShadow_1_57"/>
<feBlend mode="normal" in="SourceGraphic" in2="effect1_dropShadow_1_57" result="shape"/>
</filter>
<linearGradient id="paint0_linear_1_57" x1="59.9717" y1="169.76" x2="376.746" y2="-67.1272" gradientUnits="userSpaceOnUse">
<stop stop-color="white"/>
<stop offset="1" stop-color="white" stop-opacity="0.58"/>
</linearGradient>
</defs>
</svg>
